Patient4_TMGait_0pt5_02_left_03_EMG.mot
version=1
nRows=33
nColumns=33
inDegrees=no
endheader
time	1LAddLong	2LGlutMax	3LGlutMed	4LIliopsoas	5LSemiMemb	6LBicFemLong	7LRecFem	8LVastMed	9LVastLat	10LGasMed	11LTibAnt	12lTibPost	13LPeroneusLong	14LSol	15LExtDigLong	16LFlexDigLong	17RAddLong	18RGlutMax	19RGlutMed	20RIliopsoas	21RSemiMemb	22RBicFemLong	23RRecFem	24RVastMed	25RVastLat	26RGasMed	27RTibAnt	28RTibPost	29RPeroneusLong	30RSol	31RExtDigLong	32RFlexDigLong
3.19	0.000458	0.13977	-0.066071	0.009766	0.01709	0.027161	0.064545	0.007629	0.18829	-0.051117	-0.076599	0.003662	0.070343	0.069885	0.028076	0.002747	-0.002441	0.17853	0.79239	0.023499	0.24368	0.031281	-0.032043	0.15411	-0.008545	0.043335	-0.002594	-0.035248	0.27054	-0.41977	-0.001373	-0.005035
3.191	0.006561	0.14557	-0.055389	0.002441	0.009003	0.01236	0.06485	0.010376	0.17456	-0.011444	-0.034943	0.006714	0.028076	0.080261	0.036621	-0.010376	0.00946	0.20523	0.90973	0.19409	0.17563	0.073242	-0.12054	0.10315	0.018616	0.005646	-0.046692	-0.18097	0.23621	-1.1967	-0.003052	-0.00946
3.192	-0.006409	0.1297	-0.01358	0.002747	-0.012512	0.001373	0.072479	0.011139	0.18143	-0.004883	0.022278	0.000763	0.062408	0.029755	0.23682	0.000305	0.005035	0.079346	0.27222	0.17761	-0.072937	0.054016	0.15625	0.11444	0.027466	-0.061646	-0.11505	-0.21713	-0.12222	-1.1443	-0.007019	-0.017395
3.193	-0.000305	0.11948	-0.006714	-0.009766	0.005951	-0.023346	0.074615	0.005493	0.18875	-0.021667	0.11917	-0.001221	0.085754	0.005341	0.77606	-0.000458	0.008392	0.024414	0.015564	0.065918	-0.1326	0.010071	0.2092	-0.019684	-0.097656	-0.12375	0.016174	0.074768	-0.5455	-0.2243	-0.009613	-0.016785
3.194	0.000763	0.1239	-0.041046	-0.015259	0.038757	-0.042725	0.06546	0.00473	0.18677	-0.015106	0.15839	0.004578	0.063171	0.010986	-0.13489	-0.005035	0.007019	0.023041	-0.044708	-0.021973	-0.121	-0.036774	-0.092468	-0.11154	-0.14328	-0.10254	0.080719	0.009766	-0.39902	0.033264	-0.001526	-0.014801
3.195	0.009613	0.13565	-0.058746	-0.010376	0.03479	-0.014343	0.067444	0.002747	0.18219	-0.014191	0.13077	-0.002899	0.041199	-0.00351	-0.33905	-0.007477	-0.01236	0.065155	0.10513	-0.000153	0.012054	-0.067749	-0.023193	-0.071716	-0.121	-0.072479	0.094604	0.14023	0.042725	-0.22507	0.00061	-0.018616
3.196	0.016479	0.10391	-0.065613	-0.001526	0.015717	-0.014038	0.071411	0.010986	0.18906	-0.003357	0.10529	0.008392	0.011749	-0.010376	-0.21484	-0.002899	0.014648	0.074005	-0.053864	0.15121	0.058289	-0.15564	0.078583	-0.078583	-0.04303	-0.021057	0.10407	0.17136	-0.91248	-0.29022	-0.001831	-0.016937
3.197	0.014191	0.10407	-0.069122	0.001221	0.005646	-0.024414	0.068054	0.004578	0.19119	-0.007019	0.064392	-0.00946	0.029602	-0.011902	-0.18417	0.000305	0.01297	0.075073	0.039978	0.15259	-0.059357	-0.12528	0.14938	0.049896	0.098572	-0.001678	0.086365	0.088806	-1.1873	0.26947	0.007935	-0.012665
3.198	0.005493	0.10025	-0.089111	-0.00885	-0.004883	-0.031433	0.058899	-0.003357	0.19333	-0.024109	-0.054016	0.000763	0.061493	-0.002136	-0.088959	-0.003815	0.027466	0.1149	0.10452	0.11307	-0.12116	-0.14206	0.19623	0.006256	0.073395	0.003967	0.058289	0.095978	0.53238	1.2492	-0.003357	-0.003815
3.199	0.005646	0.13916	-0.072021	0.001678	0.006409	-0.023499	0.065155	0.004578	0.18509	-0.007782	-0.063782	0.000153	0.068817	-0.012512	-0.011902	-0.003662	0.011749	0.11719	0.069427	0.067444	-0.066833	-0.22614	0.12817	-0.007019	0.088806	-0.005951	0.072327	-0.003357	1.2503	1.0449	-0.001526	-0.012817
3.2	0.00946	0.15549	-0.056305	-0.015106	0.001373	-0.030518	0.058289	0.003967	0.18601	-0.009918	-0.055237	-0.002441	0.036774	-0.069733	0.041199	-0.001984	0.002747	0.10681	-0.033417	0.003357	-0.088348	-0.18463	0.066681	-0.093079	0.07309	0.009155	-0.020447	0.010376	0.8432	0.2919	-0.001984	0.007019
3.201	0.007324	0.16693	-0.052795	0	0.001831	-0.045471	0.073395	0.006561	0.18143	-0.036011	-0.028076	0.000305	0.036163	-0.048828	0.039825	-0.005493	-0.000763	0.18066	0.28519	-0.098267	-0.081635	-0.10483	-0.13153	-0.18127	0.048218	0.00412	-0.121	0.023956	0.89859	0.061798	0.006561	0.005341
3.202	0.006256	0.17242	-0.041351	-0.01709	0.017853	-0.025177	0.068359	0.007172	0.18585	-0.04303	-0.016479	0.001068	0.059967	-0.037384	0.015106	-0.006409	0.002136	0.14145	0.21973	-0.12787	-0.018158	-0.054626	-0.078735	-0.17075	0.048065	-0.00351	-0.1915	0.00946	1.2425	0.05127	-0.003967	0.004578
3.203	-0.061188	0.17166	-0.053253	-0.011902	0.003357	-0.026398	0.076752	0.005035	0.18951	-0.0383	0.014038	0.014648	0.062866	0.000763	0.003967	-0.000153	0.018005	0.13077	-0.28091	-0.04776	-0.023346	-0.056763	-0.013275	-0.12955	0.073395	-0.004425	-0.086975	-0.006561	0.39871	0.023041	-0.002441	-0.004272
3.204	-0.018158	0.17166	-0.069275	-0.003967	0.005493	-0.019684	0.071411	0.003967	0.177	-0.024261	0.002899	0.002899	0.069733	0.017548	0.024719	-0.000458	0.02182	0.14969	-0.69839	-0.064392	-0.000916	-0.075836	0.040894	-0.078125	0.019531	-0.001678	0.003967	-0.022888	-0.63309	-0.007782	-0.003967	-0.003815
3.205	0.002441	0.17075	-0.049438	-0.001221	0.007172	-0.033264	0.093689	0.007935	0.1564	-0.003815	0.023651	-0.011749	0.062561	-0.000305	0.037842	-0.009918	0.010986	0.1326	-0.52002	-0.046082	-0.003815	-0.029449	0.15884	-0.084839	-0.05127	-0.001526	-0.031738	-0.029602	-0.65094	-0.041046	-0.006256	0.000458
3.206	0.017242	0.19791	-0.03952	-0.003662	-0.001526	-0.023193	0.078583	0.000916	0.17136	0.00473	0.070648	0.003815	0.020905	0.006256	0.051727	0	-0.009155	0.17822	0.33218	-0.064545	-0.12634	0.11505	0.17563	-0.087891	-0.099945	-0.000916	-0.062103	-0.017242	-0.34515	0.073242	-0.003815	0.004578
3.207	0.003662	0.21576	-0.042114	0.010071	-0.028992	-0.036774	0.074005	0.004578	0.15747	0.008392	0.058441	0.008087	0.0383	0.003967	0.029602	-0.002441	-0.027771	0.15076	0.50308	0.000763	-0.25467	0.25421	0.18799	0.028381	-0.030975	0.002136	0.020599	-0.023041	-1.1334	0.094299	-0.002289	0.006714
3.208	0.00946	0.21042	-0.038757	0.00946	-0.020599	-0.051575	0.059052	-0.000916	0.14771	-0.00824	-0.034943	0.003204	0.073853	-0.013428	-0.069275	0.005798	-0.028992	0.12054	-0.15213	0.036469	-0.092163	0.37506	0.001221	0.051117	0.068512	-0.00351	0.068512	-0.02182	-0.80536	0.09552	-0.002289	-0.006256
3.209	0.009766	0.18555	-0.028381	0.003967	-0.00412	-0.046692	0.074005	0.000153	0.15671	-0.019836	-0.159	0.001984	0.15259	-0.037231	-0.094604	0.005798	-0.004272	0.079651	-0.075531	0.015106	0.18463	0.24323	-0.23422	0.070801	0.10132	-0.00351	0.058136	-0.022125	-0.28778	0.14923	-0.004272	-0.01297
3.21	0.004425	0.16602	-0.053406	-0.006714	0.016022	-0.02655	0.054016	0.002289	0.13779	-0.027466	-0.11246	0.010834	0.17227	-0.02121	-0.015259	0.004272	0.045471	0.112	-0.41184	0.015717	0.093994	0.18982	-0.23041	0.021667	0.10086	-0.042725	0.029449	-0.025177	0.55359	0.2243	0.001831	-0.009613
3.211	0.016479	0.16235	-0.04425	-0.009766	0.028687	0.002747	0.054169	-0.001068	0.13809	-0.014648	-0.027924	0.013275	0.081482	-0.0354	0.040588	0.003967	0.073395	0.15137	0.36316	0.039825	0.026703	0.23086	-0.021057	-0.061035	0.044556	-0.027466	-0.031281	-0.018311	1.0442	0.090942	-0.000305	-0.007629
3.212	0.005188	0.17731	-0.045776	-0.00473	0.021057	0.029602	0.059509	0.007324	0.12695	-0.018005	0.008392	0.008392	-0.041962	-0.029602	0.051727	0.00412	0.040436	0.10559	0.47867	0.072784	0.05661	0.11093	0.015411	-0.085144	0.045319	0.001373	-0.018921	0.00473	0.57175	-0.069275	-0.001068	-0.01236
3.213	0.006866	0.17563	-0.049896	-0.005798	0.020752	0.005493	0.050201	0.006104	0.10864	-0.007172	-0.005951	0.007172	-0.021515	-0.029144	0.05249	0.007782	0.008392	0.075226	0.77179	0.075531	-0.16937	-0.002747	0.056152	-0.16571	0.021667	-0.008087	0.031433	0.001678	-0.10819	-0.079346	-0.002441	-0.016632
3.214	0.004425	0.17883	-0.067596	-0.005493	0.003662	0.020905	0.060425	0.00412	0.10437	-0.042419	-0.034332	0.015259	0.037994	-0.036011	0.015259	-0.002899	-0.01358	0.045013	0.05127	0.033722	-0.032654	0.00473	0.080719	-0.12405	0.002747	-0.018768	0.056305	-0.093842	-0.63705	-0.018921	-0.002136	-0.011902
3.215	0.004272	0.17548	-0.080261	-0.004425	0.00412	0.010376	0.051117	0.003967	0.098114	-0.086365	-0.018311	0.014038	0.060577	-0.029297	-0.005493	0.002136	-0.012817	0.039215	0.25024	0.014496	-0.059967	0.071411	0.001831	0.063171	-0.027313	-0.001068	0.052948	-0.17532	-0.65979	-0.03891	-0.003052	-0.013428
3.216	0.00351	0.15396	-0.052338	-0.012665	0.009308	-0.01709	0.043182	0.004272	0.10407	-0.035858	-0.002136	-0.014801	0.041046	0	-0.005798	0.002594	-0.030212	0.065613	0.24612	0.034485	-0.080872	0.1239	0.020294	0.031891	-0.066681	0.023651	-0.010681	-0.17731	-0.504	-0.37476	-0.003052	-0.014954
3.217	0.000458	0.15396	-0.041962	-0.009613	0.000153	0.011139	0.057526	0.021973	0.098419	-0.008545	0.000763	-0.003967	0.041504	0.004883	-0.00473	0.003357	-0.04364	0.095367	-0.063171	0.093079	0.095673	0.04303	0.087738	0.063324	0.008698	0	-0.033264	-0.12131	-0.4837	-0.74066	-0.003052	-0.016022
3.218	-0.002899	0.17029	-0.049591	0.005951	0.001678	0.013733	0.066071	-0.019836	0.10254	0.012207	0.033722	0.014801	0.04364	-0.009613	0.026093	0.006256	-0.011139	0.034485	0.3952	-0.030212	0.2301	-0.017548	0.053253	0.084229	0.14374	-0.002289	-0.028992	-0.24872	-0.6807	-0.98938	-0.001831	-0.013428
3.219	0.005493	0.17777	-0.025635	0.003815	0.018463	0.010071	0.061951	0.008087	0.096893	0.026703	0.02594	0.01709	0.017395	-0.026703	0.039673	-0.000305	-0.009155	0.080414	0.45578	-0.034637	0.06012	0.011444	0.022125	0.10437	0.088348	-0.076904	0.004883	0.3122	-0.76843	-0.86166	-0.003052	-0.015869
3.22	0.002747	0.16769	-0.049438	-0.002899	0.020142	-0.001526	0.04776	-0.002136	0.089569	0.020599	0.026245	0.005341	0.011292	-0.024109	0.035095	0.005035	-0.006714	0.035248	-0.13565	-0.025787	-0.020294	-0.011444	0.003967	0.11734	-0.025482	-0.047455	0.028381	0.36407	-0.18066	0.2829	-0.003357	-0.006409
3.221	0.009766	0.14679	-0.037689	0.007172	0.017853	-0.025177	0.041504	-0.008545	0.095978	0.001678	0.084229	-0.011902	-0.009766	-0.032349	-0.005951	0.004425	-0.003357	0.035858	-0.327	0.010071	-0.007935	-0.12268	0.020599	0.018158	-0.048676	-0.020447	0.002747	-0.27069	0.49683	0.47974	-0.002289	0.002136
3.222	0.002747	0.11993	-0.020599	0.003662	0.014191	-0.02655	0.045319	0.000153	0.092163	-0.023346	0.11917	0.003967	0.031738	-0.013733	-0.043945	-0.003662	0.014038	0.00473	-0.38162	0.020905	-0.045013	-0.24963	0.057373	-0.055542	-0.028839	0.023346	-0.046539	0.077515	1.2526	0.11902	-0.006561	-0.003052
